<?xml version="1.0" encoding="utf-8"?>
<!-- Generator: Adobe Illustrator 16.0.0, SVG Export Plug-In . SVG Version: 6.00 Build 0)  -->
<!DOCTYPE svg PUBLIC "-//W3C//DTD SVG 1.1//EN" "http://www.w3.org/Graphics/SVG/1.1/DTD/svg11.dtd">
<svg version="1.1" id="Layer_1" xmlns="http://www.w3.org/2000/svg" xmlns:xlink="http://www.w3.org/1999/xlink" x="0px" y="0px"
	 width="250px" height="38px" viewBox="0 0 250 38" enable-background="new 0 0 250 38" xml:space="preserve">
<g>
	<polygon fill="#249ED9" points="48,24.025 48,30.647 54.62,30.647 	"/>
	<path fill="#FFFFFF" d="M66.397,30.646l-8.306-8.303c4.458-0.165,8.032-3.841,8.032-8.337c0-4.602-3.744-8.342-8.342-8.342h-9.78
		v4.183h9.78c2.293,0,4.159,1.864,4.159,4.159c0,2.292-1.866,4.159-4.159,4.159h-9.78l12.479,12.481H66.397z"/>
	<polygon fill="#249ED9" points="2.373,12.284 2.373,5.663 8.993,5.663 	"/>
	<path fill="#FFFFFF" d="M20.769,5.663l-8.304,8.305c4.456,0.163,8.032,3.841,8.032,8.337c0,4.601-3.744,8.342-8.344,8.342h-9.78
		v-4.184h9.78c2.294,0,4.16-1.865,4.16-4.158s-1.866-4.159-4.157-4.159H2.373L14.854,5.663H20.769z"/>
	<path fill="#FFFFFF" d="M31.325,5.663H24.68v4.183h6.645c4.587,0,8.309,3.721,8.309,8.31c0,4.589-3.721,8.308-8.309,8.308h-2.461
		v-8.308H24.68v12.491h6.645c6.898,0,12.492-5.591,12.492-12.491C43.816,11.256,38.223,5.663,31.325,5.663"/>
	<g opacity="0.29">
		<g>
			<defs>
				<rect id="SVGID_1_" x="80.532" y="1.995" width="1.512" height="34.007"/>
			</defs>
			<clipPath id="SVGID_2_">
				<use xlink:href="#SVGID_1_"  overflow="visible"/>
			</clipPath>
			<rect x="80.532" y="1.995" clip-path="url(#SVGID_2_)" fill="#FFFFFF" width="1.512" height="34.005"/>
		</g>
	</g>
	<g>
		<path fill="#FFFFFF" d="M114.293,24.722c0,3.514-2.446,5.926-6.271,5.926H96.17V6.53h11.853c3.824,0,6.271,2.205,6.271,5.754
			V24.722z M110.538,13.386c0-2.239-0.792-3.583-3.17-3.583h-7.477v17.571h7.477c2.377,0,3.17-1.344,3.17-3.583V13.386z"/>
		<path fill="#FFFFFF" d="M136.855,30.648h-4.271l-5.203-9.75h-5.582v9.75h-3.721V6.53h11.681c3.824,0,6.339,2.067,6.339,5.616
			v2.584c0,2.86-1.412,5.409-4.961,5.754L136.855,30.648z M128.759,17.659c2.757,0,3.618-1.103,3.618-3.342v-1.344
			c0-2.239-0.999-3.169-3.342-3.169h-7.236v7.855H128.759z"/>
		<path fill="#FFFFFF" d="M144.948,30.648c-3.824,0-6.236-2.205-6.236-5.719V12.284c0-3.549,2.412-5.754,6.236-5.754h5.65
			c3.824,0,6.236,2.205,6.236,5.754v12.645c0,3.514-2.412,5.719-6.236,5.719H144.948z M145.568,9.803
			c-2.377,0-3.136,1.344-3.136,3.583v10.405c0,2.239,0.759,3.583,3.136,3.583h4.41c2.377,0,3.136-1.344,3.136-3.583V13.386
			c0-2.239-0.759-3.583-3.136-3.583H145.568z"/>
		<path fill="#FFFFFF" d="M175.263,6.53h3.549v24.118h-4.548l-10.095-19.467v19.467h-3.515V6.53h4.789l9.819,18.778V6.53z"/>
		<path fill="#FFFFFF" d="M183.011,6.53h16.504v3.273h-12.782v6.959h10.956v3.273h-10.956v7.338h12.782v3.273h-16.504V6.53z"/>
		<path fill="#FFFFFF" d="M213.464,18.348l8.097,12.3h-4.548l-6.615-10.439h-3.962v10.439h-3.722V6.53h3.722v10.302h3.928
			l6.753-10.302h4.444L213.464,18.348z"/>
		<path fill="#FFFFFF" d="M223.762,6.53h3.722v24.118h-3.722V6.53z"/>
		<path fill="#FFFFFF" d="M237.094,9.803h-7.235V6.53h18.227v3.273h-7.235v20.845h-3.756V9.803z"/>
	</g>
</g>
</svg>
